<svg xmlns="http://www.w3.org/2000/svg" width="1280" height="720" viewBox="0 0 1280 720"><title>Ải Chi Lăng</title><defs><linearGradient id="sky" x2="0" y2="1"><stop stop-color="#a4d4da"/><stop offset="1" stop-color="#e8efcc"/></linearGradient><linearGradient id="road" x2="0" y2="1"><stop stop-color="#cfb77e"/><stop offset="1" stop-color="#e9cb8e"/></linearGradient></defs><rect width="1280" height="720" fill="url(#sky)"/><ellipse cx="1005" cy="104" rx="48" ry="48" fill="#fff0b7"/><g transform="translate(130 99) scale(1)"><path d="M-94 10 Q-127 -15 -77 -25 Q-60 -67 -23 -41 Q14 -79 44 -35 Q101 -40 103 0 Q148 21 83 26 L-85 25Z" fill="#f6f4d6" stroke="none" stroke-width="3" stroke-linejoin="round" stroke-linecap="round"/></g><g transform="translate(600 74) scale(0.8)"><path d="M-94 10 Q-127 -15 -77 -25 Q-60 -67 -23 -41 Q14 -79 44 -35 Q101 -40 103 0 Q148 21 83 26 L-85 25Z" fill="#f6f4d6" stroke="none" stroke-width="3" stroke-linejoin="round" stroke-linecap="round"/></g><g transform="translate(1130 164) scale(0.7)"><path d="M-94 10 Q-127 -15 -77 -25 Q-60 -67 -23 -41 Q14 -79 44 -35 Q101 -40 103 0 Q148 21 83 26 L-85 25Z" fill="#f6f4d6" stroke="none" stroke-width="3" stroke-linejoin="round" stroke-linecap="round"/></g><path d="M-20 328 Q145 160 290 278 Q384 179 544 301 Q728 170 865 293 Q1060 170 1300 305 V500 H-20Z" fill="#91b5a0" stroke="none" stroke-width="3" stroke-linejoin="round" stroke-linecap="round"/><rect y="341" width="1280" height="379" fill="#77954c"/><g transform="translate(200 380) scale(1.5)"><path d="M-91 0 L-68 -65 L-70 -139 L-45 -176 L-23 -182 L-6 -212 L24 -194 L51 -124 L49 -66 L82 0Z" fill="#4e806a" stroke="#34493c" stroke-width="3" stroke-linejoin="round" stroke-linecap="round"/><path d="M-63 -53 L-56 -133 L-22 -178 L-12 -116 L-29 -28Z" fill="#7ea277" stroke="none" stroke-width="3" stroke-linejoin="round" stroke-linecap="round"/><path d="M-8 -167 L12 -181 L34 -116 L18 -62 L31 -8" fill="none" stroke="#365e54" stroke-width="5" stroke-linejoin="round" stroke-linecap="round"/><ellipse cx="-4" cy="2" rx="100" ry="10" fill="#8ccdc2"/></g><g transform="translate(1020 395) scale(1.35)"><path d="M-91 0 L-68 -65 L-70 -139 L-45 -176 L-23 -182 L-6 -212 L24 -194 L51 -124 L49 -66 L82 0Z" fill="#4e806a" stroke="#34493c" stroke-width="3" stroke-linejoin="round" stroke-linecap="round"/><path d="M-63 -53 L-56 -133 L-22 -178 L-12 -116 L-29 -28Z" fill="#7ea277" stroke="none" stroke-width="3" stroke-linejoin="round" stroke-linecap="round"/><path d="M-8 -167 L12 -181 L34 -116 L18 -62 L31 -8" fill="none" stroke="#365e54" stroke-width="5" stroke-linejoin="round" stroke-linecap="round"/><ellipse cx="-4" cy="2" rx="100" ry="10" fill="#8ccdc2"/></g><path d="M34 447 Q140 344 299 383 L441 431" fill="none" stroke="#a6b771" stroke-width="16" stroke-linejoin="round" stroke-linecap="round"/><path d="M606 310 L674 310 Q704 421 793 523 L1010 720 H270 L487 523 Q576 421 606 310Z" fill="#79924f" stroke="#4b6040" stroke-width="3" stroke-linejoin="round" stroke-linecap="round"/><path d="M615 310 L665 310 Q694 431 778 532 L975 720 H305 L502 532 Q586 431 615 310Z" fill="url(#road)" stroke="#be9d66" stroke-width="2" stroke-linejoin="round" stroke-linecap="round"/><path d="M612.8472222222222 312.84722222222223 Q640 313.5138888888889 667.1527777777778 312.84722222222223" fill="none" stroke="#bda376" stroke-width="1.5" stroke-linejoin="round" stroke-linecap="round"/><path d="M606.3888888888889 321.3888888888889 Q640 322.72222222222223 673.6111111111111 321.3888888888889" fill="none" stroke="#bda376" stroke-width="1.5" stroke-linejoin="round" stroke-linecap="round"/><path d="M595.625 335.625 Q640 337.625 684.375 335.625" fill="none" stroke="#bda376" stroke-width="1.5" stroke-linejoin="round" stroke-linecap="round"/><path d="M580.5555555555555 355.55555555555554 Q640 358.22222222222223 699.4444444444445 355.55555555555554" fill="none" stroke="#bda376" stroke-width="1.5" stroke-linejoin="round" stroke-linecap="round"/><path d="M561.1805555555555 381.18055555555554 Q640 384.51388888888886 718.8194444444445 381.18055555555554" fill="none" stroke="#bda376" stroke-width="1.5" stroke-linejoin="round" stroke-linecap="round"/><path d="M537.5 412.5 Q640 416.5 742.5 412.5" fill="none" stroke="#bda376" stroke-width="1.5" stroke-linejoin="round" stroke-linecap="round"/><path d="M509.51388888888886 449.5138888888889 Q640 454.1805555555556 770.4861111111111 449.5138888888889" fill="none" stroke="#bda376" stroke-width="1.5" stroke-linejoin="round" stroke-linecap="round"/><path d="M477.22222222222223 492.2222222222222 Q640 497.5555555555555 802.7777777777778 492.2222222222222" fill="none" stroke="#bda376" stroke-width="1.5" stroke-linejoin="round" stroke-linecap="round"/><path d="M440.625 540.625 Q640 546.625 839.375 540.625" fill="none" stroke="#bda376" stroke-width="1.5" stroke-linejoin="round" stroke-linecap="round"/><path d="M399.7222222222222 594.7222222222222 Q640 601.3888888888888 880.2777777777778 594.7222222222222" fill="none" stroke="#bda376" stroke-width="1.5" stroke-linejoin="round" stroke-linecap="round"/><path d="M354.5138888888889 654.5138888888889 Q640 661.8472222222223 925.4861111111111 654.5138888888889" fill="none" stroke="#bda376" stroke-width="1.5" stroke-linejoin="round" stroke-linecap="round"/><path d="M472 415 l9 -17 7 15 12 -9 -6 18" fill="none" stroke="#456b3e" stroke-width="3" stroke-linejoin="round" stroke-linecap="round"/><path d="M810 431 l9 -17 7 15 12 -9 -6 18" fill="none" stroke="#456b3e" stroke-width="3" stroke-linejoin="round" stroke-linecap="round"/><path d="M420 447 l9 -17 7 15 12 -9 -6 18" fill="none" stroke="#456b3e" stroke-width="3" stroke-linejoin="round" stroke-linecap="round"/><path d="M862 463 l9 -17 7 15 12 -9 -6 18" fill="none" stroke="#456b3e" stroke-width="3" stroke-linejoin="round" stroke-linecap="round"/><path d="M368 479 l9 -17 7 15 12 -9 -6 18" fill="none" stroke="#456b3e" stroke-width="3" stroke-linejoin="round" stroke-linecap="round"/><path d="M914 495 l9 -17 7 15 12 -9 -6 18" fill="none" stroke="#456b3e" stroke-width="3" stroke-linejoin="round" stroke-linecap="round"/><path d="M316 511 l9 -17 7 15 12 -9 -6 18" fill="none" stroke="#456b3e" stroke-width="3" stroke-linejoin="round" stroke-linecap="round"/><path d="M966 527 l9 -17 7 15 12 -9 -6 18" fill="none" stroke="#456b3e" stroke-width="3" stroke-linejoin="round" stroke-linecap="round"/><path d="M264 543 l9 -17 7 15 12 -9 -6 18" fill="none" stroke="#456b3e" stroke-width="3" stroke-linejoin="round" stroke-linecap="round"/><path d="M1018 559 l9 -17 7 15 12 -9 -6 18" fill="none" stroke="#456b3e" stroke-width="3" stroke-linejoin="round" stroke-linecap="round"/><path d="M212 575 l9 -17 7 15 12 -9 -6 18" fill="none" stroke="#456b3e" stroke-width="3" stroke-linejoin="round" stroke-linecap="round"/><path d="M1070 591 l9 -17 7 15 12 -9 -6 18" fill="none" stroke="#456b3e" stroke-width="3" stroke-linejoin="round" stroke-linecap="round"/><path d="M160 607 l9 -17 7 15 12 -9 -6 18" fill="none" stroke="#456b3e" stroke-width="3" stroke-linejoin="round" stroke-linecap="round"/><path d="M1122 623 l9 -17 7 15 12 -9 -6 18" fill="none" stroke="#456b3e" stroke-width="3" stroke-linejoin="round" stroke-linecap="round"/><path d="M108 639 l9 -17 7 15 12 -9 -6 18" fill="none" stroke="#456b3e" stroke-width="3" stroke-linejoin="round" stroke-linecap="round"/><path d="M1174 655 l9 -17 7 15 12 -9 -6 18" fill="none" stroke="#456b3e" stroke-width="3" stroke-linejoin="round" stroke-linecap="round"/><path d="M56 671 l9 -17 7 15 12 -9 -6 18" fill="none" stroke="#456b3e" stroke-width="3" stroke-linejoin="round" stroke-linecap="round"/><path d="M1226 687 l9 -17 7 15 12 -9 -6 18" fill="none" stroke="#456b3e" stroke-width="3" stroke-linejoin="round" stroke-linecap="round"/><path d="M4 703 l9 -17 7 15 12 -9 -6 18" fill="none" stroke="#456b3e" stroke-width="3" stroke-linejoin="round" stroke-linecap="round"/><g transform="translate(-15 698) scale(2)"><path d="M-8 0 Q-16 -90 0 -158 Q13 -92 9 0Z" fill="#846440" stroke="#34493c" stroke-width="3" stroke-linejoin="round" stroke-linecap="round"/><path d="M-65 -68 Q-115 -92 -70 -127 Q-84 -176 -36 -174 Q-18 -216 25 -177 Q88 -184 88 -138 Q120 -95 63 -78 Q14 -45 -65 -68Z" fill="#386c46" stroke="#34493c" stroke-width="3" stroke-linejoin="round" stroke-linecap="round"/><path d="M-63 -131 Q-85 -166 -38 -167 Q-11 -211 26 -169 Q63 -169 70 -144 Q20 -161 -2 -123 Q-30 -150 -63 -131Z" fill="#75a653" stroke="none" stroke-width="3" stroke-linejoin="round" stroke-linecap="round"/></g><g transform="translate(1300 710) scale(2.1)"><path d="M-8 0 Q-16 -90 0 -158 Q13 -92 9 0Z" fill="#846440" stroke="#34493c" stroke-width="3" stroke-linejoin="round" stroke-linecap="round"/><path d="M-65 -68 Q-115 -92 -70 -127 Q-84 -176 -36 -174 Q-18 -216 25 -177 Q88 -184 88 -138 Q120 -95 63 -78 Q14 -45 -65 -68Z" fill="#386c46" stroke="#34493c" stroke-width="3" stroke-linejoin="round" stroke-linecap="round"/><path d="M-63 -131 Q-85 -166 -38 -167 Q-11 -211 26 -169 Q63 -169 70 -144 Q20 -161 -2 -123 Q-30 -150 -63 -131Z" fill="#75a653" stroke="none" stroke-width="3" stroke-linejoin="round" stroke-linecap="round"/></g></svg>